HIERARCHY
ROOT Hips
{
 OFFSET 0.000000 0.000000 0.000000
 CHANNELS 6 Xposition Yposition Zposition Yrotation Xrotation Zrotation
 JOINT Chest
 {
  OFFSET 0.000000 14.067100 -0.020500
  CHANNELS 3 Yrotation Xrotation Zrotation
  JOINT Chest2
  {
   OFFSET 0.000000 9.717300 0.041800
   CHANNELS 3 Yrotation Xrotation Zrotation
   JOINT Chest3
   {
    OFFSET 0.000000 9.672600 0.000000
    CHANNELS 3 Yrotation Xrotation Zrotation
    JOINT Chest4
    {
     OFFSET 0.000000 9.662700 0.000000
     CHANNELS 3 Yrotation Xrotation Zrotation
     JOINT Neck
     {
      OFFSET 0.000000 14.815200 0.000000
      CHANNELS 3 Yrotation Xrotation Zrotation
      JOINT Head
      {
       OFFSET 0.000000 9.056800 0.088400
       CHANNELS 3 Yrotation Xrotation Zrotation
       End Site
       {
        OFFSET 0.000000 17.018200 0.046700
       }
      }
     }
     JOINT RightCollar
     {
      OFFSET -3.269500 9.872600 0.000000
      CHANNELS 3 Yrotation Xrotation Zrotation
      JOINT RightShoulder
      {
       OFFSET -15.850600 0.000000 0.000000
       CHANNELS 3 Yrotation Xrotation Zrotation
       JOINT RightElbow
       {
        OFFSET 0.000000 -29.117400 0.000000
        CHANNELS 3 Yrotation Xrotation Zrotation
        JOINT RightWrist
        {
         OFFSET 0.000000 -23.969300 0.014600
         CHANNELS 3 Yrotation Xrotation Zrotation
         End Site
         {
          OFFSET 0.000000 -18.039300 0.000000
         }
        }
       }
      }
     }
     JOINT LeftCollar
     {
      OFFSET 3.269500 9.872600 0.000000
      CHANNELS 3 Yrotation Xrotation Zrotation
      JOINT LeftShoulder
      {
       OFFSET 15.850600 0.000000 0.000000
       CHANNELS 3 Yrotation Xrotation Zrotation
       JOINT LeftElbow
       {
        OFFSET 0.000000 -29.117400 0.000000
        CHANNELS 3 Yrotation Xrotation Zrotation
        JOINT LeftWrist
        {
         OFFSET 0.000000 -23.969300 0.014600
         CHANNELS 3 Yrotation Xrotation Zrotation
         End Site
         {
          OFFSET 0.000000 -18.039300 0.000000
         }
        }
       }
      }
     }
    }
   }
  }
 }
 JOINT RightHip
 {
  OFFSET -11.600400 0.101300 0.010200
  CHANNELS 3 Yrotation Xrotation Zrotation
  JOINT RightKnee
  {
   OFFSET 0.000000 -45.913300 -0.001400
   CHANNELS 3 Yrotation Xrotation Zrotation
   JOINT RightAnkle
   {
    OFFSET 0.000000 -46.966900 0.018600
    CHANNELS 3 Yrotation Xrotation Zrotation
    JOINT RightToe
    {
     OFFSET 0.000000 -10.064300 17.850900
     CHANNELS 3 Yrotation Xrotation Zrotation
     End Site
     {
      OFFSET 0.000000 -1.607600 6.976100
     }
    }
   }
  }
 }
 JOINT LeftHip
 {
  OFFSET 11.600400 0.101300 0.010200
  CHANNELS 3 Yrotation Xrotation Zrotation
  JOINT LeftKnee
  {
   OFFSET 0.000000 -45.913300 -0.001400
   CHANNELS 3 Yrotation Xrotation Zrotation
   JOINT LeftAnkle
   {
    OFFSET 0.000000 -46.966900 0.018600
    CHANNELS 3 Yrotation Xrotation Zrotation
    JOINT LeftToe
    {
     OFFSET 0.000000 -10.064300 17.850900
     CHANNELS 3 Yrotation Xrotation Zrotation
     End Site
     {
      OFFSET 0.000000 -1.607600 6.976100
     }
    }
   }
  }
 }
}
MOTION
Frames: 13
Frame Time: 0.008333
-278.065558 61.032827 -10.856069 173.616081 -37.903009 -0.509508 -1.604089 9.683704 2.581444 -1.068153 5.624267 1.826873 -1.291269 6.962958 2.306733 -1.062564 5.609619 1.833582 2.379214 27.174204 -6.553198 5.569956 15.123701 -12.161786 6.988441 5.207161 -4.240349 1.674252 -18.698310 -8.549010 23.762840 -46.674088 -9.118597 6.139812 -1.794092 -37.494854 -3.932936 -3.828386 -1.455814 1.100949 -36.396029 -9.408065 95.478901 -49.883857 -140.670476 5.615874 -8.815643 49.307322 18.892380 -46.381858 -23.967891 -105.476448 65.712920 -94.029898 4.778476 -3.167970 -0.098995 0.135790 -0.685556 0.058891 -3.224840 -47.780271 9.902715 97.173046 81.428367 96.067558 -6.070743 -7.947941 -0.965475 0.330257 0.549616 0.149133
-278.068162 61.038696 -10.848826 173.590306 -37.838293 -0.538750 -1.594102 9.718033 2.580824 -1.052493 5.615872 1.832310 -1.282837 6.999916 2.288220 -1.047667 5.596000 1.841228 2.350798 27.255799 -6.540705 5.509722 15.270354 -12.129645 6.931773 5.215844 -4.248153 1.538282 -18.649279 -8.467372 23.956749 -46.853116 -9.199659 6.152672 -1.760024 -37.507722 -3.895972 -3.806656 -1.387860 1.089551 -36.300974 -9.388921 95.460138 -49.924416 -140.675618 5.650528 -8.874489 49.402526 18.890565 -46.435051 -23.943451 -105.416137 65.698954 -93.941475 4.797892 -3.169426 -0.099400 0.139556 -0.672181 0.050700 -3.258136 -47.841345 9.969050 97.173220 81.421147 96.078450 -6.082714 -7.963546 -0.972343 0.327441 0.558272 0.153205
-278.070862 61.046171 -10.843882 173.552273 -37.789405 -0.552080 -1.572567 9.768507 2.576393 -1.038437 5.605683 1.835607 -1.271343 7.012079 2.281236 -1.038425 5.605736 1.835612 2.324177 27.341669 -6.524961 5.451654 15.424716 -12.091963 6.885997 5.234827 -4.259241 1.405579 -18.586140 -8.375995 24.107805 -47.010404 -9.275220 6.203755 -1.762236 -37.542315 -3.860825 -3.767272 -1.329074 1.075538 -36.225217 -9.356585 95.415056 -49.961473 -140.662649 5.682854 -8.938533 49.461074 18.911379 -46.468775 -23.932296 -105.373268 65.694500 -93.864662 4.811047 -3.173528 -0.096424 0.133672 -0.658633 0.041751 -3.263234 -47.884092 10.002666 97.168699 81.394875 96.094725 -6.084810 -7.989115 -0.984034 0.330236 0.563934 0.161576
-278.078825 61.054357 -10.841531 173.530728 -37.755105 -0.545492 -1.560282 9.772918 2.567816 -1.040834 5.653271 1.816092 -1.255764 6.975873 2.294683 -1.041409 5.665110 1.808408 2.299986 27.428138 -6.509425 5.397863 15.580469 -12.055150 6.858112 5.265073 -4.276798 1.285781 -18.510709 -8.279806 24.270952 -47.184348 -9.397336 6.242698 -1.771206 -37.571985 -3.817772 -3.709312 -1.287002 1.052626 -36.178096 -9.310945 95.353204 -50.003362 -140.629091 5.706187 -9.000415 49.478688 18.940979 -46.490280 -23.949863 -105.357165 65.698909 -93.833528 4.806811 -3.174473 -0.088757 0.138972 -0.654101 0.046367 -3.234276 -47.911656 9.972348 97.098113 81.369819 96.045749 -6.063475 -8.005823 -0.984370 0.310774 0.571412 0.155692
-278.082760 61.059426 -10.836337 173.507779 -37.713601 -0.547635 -1.545815 9.770106 2.570239 -1.045739 5.701147 1.798669 -1.252122 7.016369 2.274862 -1.032254 5.654537 1.812204 2.278802 27.510045 -6.494821 5.350048 15.728277 -12.020825 6.847594 5.304876 -4.299042 1.186025 -18.427976 -8.181872 24.435909 -47.331812 -9.552765 6.253853 -1.839925 -37.588861 -3.763931 -3.640561 -1.260302 1.028092 -36.158768 -9.254744 95.276379 -50.051409 -140.575291 5.718822 -9.053088 49.455666 18.966827 -46.521530 -23.959365 -105.331108 65.693751 -93.781921 4.805493 -3.169700 -0.091043 0.151305 -0.650122 0.041693 -3.228798 -47.951312 9.985576 97.079852 81.362119 96.035425 -6.056938 -8.013798 -0.983833 0.297466 0.572643 0.156299
-278.082994 61.062277 -10.830135 173.488398 -37.673800 -0.559091 -1.541409 9.804059 2.569612 -1.039062 5.716707 1.792166 -1.252330 7.063089 2.253593 -1.023181 5.646668 1.813306 2.260677 27.583080 -6.479836 5.308504 15.859952 -11.986995 6.849291 5.349734 -4.320942 1.106185 -18.342172 -8.083786 24.609116 -47.548274 -9.743842 6.282185 -1.822518 -37.637823 -3.701996 -3.570756 -1.246177 1.006559 -36.158170 -9.185800 95.183073 -50.096715 -140.511487 5.721637 -9.086599 49.403829 19.018707 -46.529771 -23.991962 -105.326680 65.699411 -93.706274 4.806417 -3.185215 -0.096139 0.164978 -0.628893 0.035468 -3.246506 -47.990077 10.019897 97.079581 81.355532 96.036684 -6.051078 -8.023039 -0.977205 0.283940 0.577558 0.147877
-278.085811 61.064763 -10.826647 173.478037 -37.649968 -0.555917 -1.544831 9.851205 2.550812 -1.032213 5.738811 1.783942 -1.249278 7.091646 2.240867 -1.020699 5.669507 1.803162 2.244383 27.642555 -6.464096 5.271348 15.966669 -11.952931 6.860129 5.395121 -4.342931 1.040324 -18.258795 -7.987036 24.767182 -47.773074 -9.951657 6.311285 -1.801488 -37.693349 -3.638926 -3.508472 -1.244937 0.979623 -36.169130 -9.098907 95.079650 -50.132666 -140.443192 5.717002 -9.094663 49.333599 19.062501 -46.531132 -24.032782 -105.331273 65.709922 -93.671612 4.818559 -3.192178 -0.098214 0.162250 -0.619858 0.051713 -3.252864 -48.013764 10.027476 97.084884 81.356227 96.042256 -6.050122 -8.026141 -0.978457 0.287940 0.579726 0.144666
-278.086130 61.066641 -10.825209 173.468994 -37.640485 -0.554367 -1.548684 9.979338 2.516253 -1.015099 5.649842 1.808405 -1.254882 7.176683 2.210983 -1.019085 5.698722 1.792536 2.230183 27.686084 -6.448265 5.239298 16.044102 -11.919886 6.880263 5.444724 -4.365250 0.983710 -18.186728 -7.897616 24.900720 -47.996224 -10.164303 6.346105 -1.804722 -37.749665 -3.579353 -3.456797 -1.257119 0.941498 -36.187171 -8.993934 94.973187 -50.161036 -140.366871 5.714216 -9.077135 49.248431 19.084013 -46.529292 -24.053767 -105.343426 65.720750 -93.656858 4.816952 -3.196933 -0.088990 0.165183 -0.616800 0.035014 -3.253670 -48.022952 10.035053 97.099721 81.354232 96.056223 -6.045245 -8.034507 -0.976978 0.289986 0.580520 0.146060
-278.083995 61.067827 -10.825804 173.463203 -37.643371 -0.555820 -1.544837 10.047280 2.502087 -1.012704 5.633421 1.813149 -1.259451 7.271291 2.180749 -1.018389 5.733672 1.781722 2.217468 27.713548 -6.432550 5.211357 16.092125 -11.888131 6.904392 5.502737 -4.386503 0.935875 -18.132957 -7.823674 24.969765 -48.211213 -10.345326 6.394834 -1.832349 -37.871308 -3.523844 -3.415012 -1.279326 0.901952 -36.207593 -8.884263 94.859640 -50.180614 -140.284614 5.718172 -9.034694 49.150961 19.087141 -46.523066 -24.055310 -105.362238 65.717810 -93.654682 4.800975 -3.205100 -0.070200 0.186608 -0.615951 0.018370 -3.264656 -48.021024 10.048768 97.153657 81.357738 96.105445 -6.032950 -8.043558 -0.970995 0.278267 0.579776 0.141327
-278.078087 61.067410 -10.826930 173.466721 -37.649536 -0.570724 -1.539911 10.117221 2.499115 -1.021347 5.669968 1.798585 -1.249198 7.325241 2.168780 -1.017707 5.773782 1.770413 2.203024 27.725415 -6.415754 5.181578 16.111015 -11.854838 6.922376 5.565019 -4.406962 0.895393 -18.097933 -7.768026 25.054695 -48.467586 -10.518245 6.398961 -1.840401 -37.972584 -3.477678 -3.380473 -1.303912 0.875627 -36.229610 -8.786765 94.736375 -50.187562 -140.201962 5.727008 -8.969151 49.043478 19.071231 -46.517683 -24.042658 -105.395754 65.705904 -93.657582 4.792683 -3.219639 -0.092688 0.207001 -0.615441 0.051126 -3.301675 -48.019114 10.093217 97.260231 81.369546 96.196063 -6.023748 -8.049758 -0.962831 0.270243 0.571871 0.141116
-278.075053 61.067452 -10.831648 173.474465 -37.668166 -0.568756 -1.532949 10.200421 2.480987 -1.030212 5.706828 1.785052 -1.238528 7.389263 2.153727 -1.016761 5.818497 1.758289 2.184770 27.722655 -6.397352 5.145957 16.102062 -11.818592 6.932582 5.622125 -4.426167 0.857497 -18.074322 -7.731381 25.114412 -48.732659 -10.666823 6.379924 -1.859563 -38.050304 -3.447093 -3.352599 -1.324957 0.863370 -36.254402 -8.706858 94.619461 -50.184189 -140.123221 5.739100 -8.885609 48.924316 19.065403 -46.494448 -24.058533 -105.426743 65.714104 -93.670748 4.798479 -3.221225 -0.103448 0.207488 -0.623706 0.064203 -3.308106 -48.003894 10.100705 97.351094 81.383929 96.274540 -6.016699 -8.054306 -0.956877 0.267536 0.568310 0.143001
-278.072588 61.066094 -10.836623 173.475265 -37.681300 -0.555593 -1.517197 10.282285 2.460824 -1.020216 5.838241 1.751275 -1.240644 7.368159 2.161984 -1.015800 5.867406 1.745776 2.162495 27.706772 -6.379745 5.104470 16.068425 -11.783569 6.942369 5.666628 -4.443980 0.821098 -18.051776 -7.715042 25.006468 -49.003008 -10.704444 6.432866 -1.913201 -38.105211 -3.432014 -3.332403 -1.346044 0.853814 -36.281574 -8.641404 94.538391 -50.177300 -140.063067 5.749235 -8.785654 48.795693 19.057817 -46.485158 -24.079539 -105.451843 65.733044 -93.699668 4.805260 -3.211766 -0.090267 0.202348 -0.639999 0.057465 -3.302024 -47.994952 10.101359 97.450610 81.400427 96.360493 -6.016198 -8.056669 -0.949206 0.271522 0.562107 0.144946
-278.068539 61.064681 -10.842420 173.481439 -37.690848 -0.549403 -1.503059 10.368398 2.447474 -1.015092 5.919653 1.733968 -1.242408 7.404216 2.153847 -1.015126 5.919621 1.734023 2.136178 27.680442 -6.366035 5.057473 16.015552 -11.755201 6.954197 5.693350 -4.461057 0.785872 -18.022281 -7.716418 24.946238 -49.299114 -10.762224 6.433188 -1.952671 -38.161413 -3.428460 -3.319531 -1.375112 0.838533 -36.308758 -8.585529 94.512378 -50.177698 -140.037015 5.754345 -8.673139 48.658461 19.045809 -46.477747 -24.086104 -105.471277 65.744060 -93.721561 4.798065 -3.212262 -0.087211 0.208264 -0.647239 0.062436 -3.303790 -47.989059 10.105281 97.542774 81.413002 96.440324 -6.010862 -8.060227 -0.940424 0.253405 0.556603 0.143560
